<svg width="166" height="60" viewBox="0 0 166 60" fill="none" xmlns="http://www.w3.org/2000/svg">
<path d="M27.0619 0.979646H41.4046V8.15103H39.2182V35H26.9307L14.1184 15.2787V27.8286H16.2173V35H1.87456V27.8286H4.06096V8.15103H1.87456V0.979646H17.6604L29.1608 18.5146V8.15103H27.0619V0.979646ZM43.083 35V27.8286H45.2694V8.15103H43.083V0.979646H59.6997V8.15103H57.5133V27.8286H59.6997V35H43.083ZM93.1044 27.8286H94.941V35H78.4118V27.8286H80.2047L77.6684 24.2429H77.2312L74.6949 27.8286H76.4878V35H61.183V27.8286H63.4568L71.8526 18.3834L63.107 8.15103H61.2704V0.979646H77.6684V8.15103H76.0068L78.4118 11.7367H78.8491L81.2541 8.15103H79.5925V0.979646H94.7661V8.15103H92.4922L84.2276 17.4651L93.1044 27.8286ZM128.516 27.8286H130.265V35H113.123V27.8286H115.747L115.047 24.3304H109.1L108.401 27.8286H111.024V35H96.0694V27.8286H97.8185L105.209 0.979646H121.125L128.516 27.8286ZM110.062 19.6952H114.085L112.292 10.9933H111.855L110.062 19.6952ZM131.649 27.8286H133.836V8.15103H131.649V0.979646H151.72C155.481 0.979646 158.352 1.75217 160.335 3.29723C162.317 4.84228 163.308 7.34935 163.308 10.8184C163.308 12.7716 162.915 14.4624 162.128 15.8909C161.341 17.3193 160.218 18.3105 158.761 18.8644L158.804 19.3017C161.603 19.7389 163.002 21.4589 163.002 24.4616V27.8286H165.057V35H151.196V24.7239C151.196 23.587 151.021 22.727 150.671 22.144C150.35 21.5609 149.825 21.1674 149.097 20.9633C148.397 20.7593 147.391 20.6572 146.079 20.6572V27.8286H148.966V35H131.649V27.8286ZM148.441 15.3224C149.286 15.3224 149.913 15.1038 150.321 14.6665C150.758 14.2001 150.977 13.4858 150.977 12.5238V10.9496C150.977 9.98761 150.758 9.28796 150.321 8.85068C149.913 8.38425 149.286 8.15103 148.441 8.15103H146.079V15.3224H148.441ZM0.00300243 59L6.78958 46.5113H8.43375L9.97298 59H8.43375L7.96149 55.117H3.74612L1.71714 59H0.00300243ZM4.49824 53.7177H7.80407L7.52421 51.094C7.47757 50.6509 7.43093 50.1611 7.38428 49.6247C7.3493 49.0883 7.32598 48.6161 7.31432 48.2079H7.26184C7.07527 48.651 6.85955 49.1291 6.61467 49.6422C6.36979 50.1436 6.11326 50.6509 5.84506 51.1639L4.49824 53.7177ZM14.1275 59.1749C13.6611 59.1749 13.2472 59.0875 12.8857 58.9125C12.5358 58.7376 12.2618 58.4753 12.0636 58.1254C11.877 57.7756 11.7837 57.35 11.7837 56.8486C11.7837 56.5804 11.8012 56.3297 11.8362 56.0965C11.8828 55.8516 11.9295 55.6009 11.9761 55.3443L13.2005 49.6247H14.7572L13.4979 55.5193C13.4512 55.7758 13.4104 55.9973 13.3754 56.1839C13.3521 56.3705 13.3404 56.5396 13.3404 56.6912C13.3404 57.0643 13.4337 57.3617 13.6203 57.5832C13.8185 57.7931 14.1334 57.8981 14.5648 57.8981C14.9613 57.8981 15.3869 57.7581 15.8417 57.4783C16.3081 57.1984 16.7396 56.7495 17.136 56.1314C17.5325 55.5134 17.8415 54.6913 18.0631 53.6652L18.9201 49.6247H20.4419L18.4479 59H17.1885L17.3809 57.2684H17.2934C17.0719 57.5482 16.8095 57.8398 16.5063 58.1429C16.2148 58.4345 15.8708 58.6793 15.4744 58.8776C15.0896 59.0758 14.6406 59.1749 14.1275 59.1749ZM24.1868 59.1749C23.5571 59.1749 23.0265 59.0233 22.5951 58.7201C22.1636 58.417 21.9479 57.8864 21.9479 57.1284C21.9479 56.9535 21.9595 56.7611 21.9829 56.5512C22.0178 56.3297 22.0587 56.1081 22.1053 55.8866L23.1723 50.7966H21.7205L21.8604 50.097L23.4346 49.4323L24.5191 47.4908H25.4286L24.9564 49.6247H27.3177L27.0728 50.7966H24.729L23.6445 55.9041C23.6095 56.0557 23.5746 56.2306 23.5396 56.4288C23.5046 56.6154 23.4871 56.7903 23.4871 56.9535C23.4871 57.2217 23.5571 57.4491 23.697 57.6357C23.8486 57.8223 24.0876 57.9155 24.4141 57.9155C24.624 57.9155 24.8281 57.8981 25.0263 57.8631C25.2246 57.8164 25.4345 57.7581 25.656 57.6882V58.8601C25.5161 58.93 25.3004 59 25.0088 59.07C24.7173 59.1399 24.4433 59.1749 24.1868 59.1749ZM31.0963 59.1399C30.3733 59.1399 29.7495 58.9942 29.2248 58.7026C28.7 58.4111 28.2977 57.9972 28.0179 57.4608C27.738 56.9127 27.5981 56.2714 27.5981 55.5367C27.5981 54.9654 27.6622 54.394 27.7905 53.8226C27.9187 53.2396 28.1053 52.6915 28.3502 52.1784C28.6067 51.6654 28.9216 51.2106 29.2947 50.8141C29.6679 50.406 30.1051 50.0853 30.6066 49.8521C31.108 49.6189 31.6677 49.5023 32.2857 49.5023C33.0203 49.5023 33.6442 49.648 34.1573 49.9396C34.682 50.2311 35.0843 50.6509 35.3642 51.1989C35.644 51.7353 35.784 52.3767 35.784 53.123C35.784 53.6943 35.7198 54.2657 35.5915 54.8371C35.4633 55.4085 35.2709 55.9565 35.0143 56.4813C34.7695 56.9943 34.4605 57.4491 34.0873 57.8456C33.7142 58.242 33.2769 58.5569 32.7755 58.7901C32.2741 59.0233 31.7143 59.1399 31.0963 59.1399ZM31.1838 57.8631C31.5219 57.8631 31.8368 57.7931 32.1283 57.6532C32.4315 57.5132 32.7113 57.3092 32.9679 57.041C33.2244 56.7611 33.4401 56.423 33.615 56.0265C33.8016 55.6184 33.9474 55.1578 34.0523 54.6447C34.1573 54.1316 34.2097 53.5661 34.2097 52.948C34.2097 52.5982 34.1456 52.2601 34.0173 51.9336C33.9007 51.5954 33.7025 51.3214 33.4226 51.1115C33.1428 50.8899 32.7696 50.7791 32.3032 50.7791C31.9184 50.7791 31.5627 50.8608 31.2362 51.024C30.9097 51.1873 30.6182 51.4205 30.3617 51.7237C30.1051 52.0152 29.8836 52.365 29.697 52.7731C29.5221 53.1696 29.388 53.6069 29.2947 54.085C29.2014 54.5631 29.1548 55.0645 29.1548 55.5892C29.1548 56.3122 29.3297 56.8719 29.6795 57.2684C30.041 57.6648 30.5424 57.8631 31.1838 57.8631ZM47.1575 59.1749C45.6765 59.1749 44.5163 58.761 43.6767 57.933C42.8371 57.1051 42.4173 55.9507 42.4173 54.4698C42.4173 53.5602 42.5223 52.6973 42.7322 51.8811C42.9421 51.0648 43.2394 50.3185 43.6242 49.6422C44.0207 48.9659 44.493 48.3829 45.041 47.8931C45.6007 47.3917 46.2246 47.0069 46.9126 46.7387C47.6006 46.4705 48.3469 46.3364 49.1515 46.3364C49.9094 46.3364 50.5741 46.4005 51.1454 46.5288C51.7168 46.6571 52.2591 46.8378 52.7721 47.071L52.1774 48.4353C51.746 48.2371 51.2795 48.068 50.7781 47.9281C50.2767 47.7882 49.7287 47.7182 49.134 47.7182C48.411 47.7182 47.7405 47.8814 47.1225 48.2079C46.5161 48.5344 45.9797 48.995 45.5133 49.5897C45.0585 50.1844 44.7029 50.8899 44.4463 51.7062C44.2014 52.5108 44.079 53.397 44.079 54.3648C44.079 55.0062 44.1898 55.5892 44.4113 56.114C44.6446 56.627 45.0002 57.0352 45.4783 57.3383C45.9564 57.6415 46.5686 57.7931 47.3149 57.7931C47.758 57.7931 48.1603 57.764 48.5218 57.7057C48.8949 57.6357 49.2098 57.5599 49.4663 57.4783L50.2709 53.7876H47.8221L48.1195 52.4233H52.125L50.7956 58.5277C50.2709 58.7143 49.717 58.8717 49.134 59C48.5509 59.1166 47.8921 59.1749 47.1575 59.1749ZM53.4846 59L56.3182 45.7067H57.8574L55.0238 59H53.4846ZM60.8976 59.1749C60.3962 59.1749 59.9531 59.0583 59.5683 58.8251C59.1951 58.5802 58.8978 58.2187 58.6762 57.7406C58.4663 57.2625 58.3614 56.6737 58.3614 55.974C58.3614 55.2744 58.4313 54.6039 58.5713 53.9625C58.7229 53.3095 58.9328 52.709 59.201 52.1609C59.4692 51.6129 59.7898 51.1406 60.163 50.7442C60.5478 50.336 60.9734 50.0212 61.4398 49.7996C61.9179 49.5664 62.4252 49.4498 62.9616 49.4498C63.3697 49.4498 63.7253 49.5256 64.0285 49.6772C64.3434 49.8288 64.6057 50.027 64.8156 50.2719C65.0255 50.5168 65.1946 50.785 65.3229 51.0765H65.4103L65.97 49.6247H67.142L65.148 59H63.9236L64.151 57.2684H64.081C63.8128 57.6065 63.5155 57.9214 63.1889 58.2129C62.8624 58.5044 62.5068 58.7376 62.122 58.9125C61.7488 59.0875 61.3407 59.1749 60.8976 59.1749ZM61.4048 57.8981C61.8363 57.8981 62.2561 57.7406 62.6642 57.4258C63.084 57.111 63.463 56.6853 63.8011 56.1489C64.1393 55.6125 64.3958 55.012 64.5708 54.3473C64.664 54.0092 64.7223 53.7002 64.7457 53.4203C64.7806 53.1288 64.7981 52.8606 64.7981 52.6157C64.7981 52.0677 64.6465 51.6187 64.3434 51.2689C64.0402 50.9191 63.6321 50.7442 63.119 50.7442C62.7575 50.7442 62.4135 50.8374 62.087 51.024C61.7722 51.2106 61.4806 51.473 61.2124 51.8111C60.9442 52.1376 60.7169 52.5224 60.5303 52.9655C60.3437 53.4087 60.198 53.8926 60.093 54.4173C59.9881 54.9304 59.9356 55.461 59.9356 56.009C59.9356 56.6387 60.0639 57.111 60.3204 57.4258C60.5769 57.7406 60.9384 57.8981 61.4048 57.8981ZM70.1742 59.1749C69.6028 59.1749 69.1014 59.1166 68.67 59C68.2502 58.8951 67.877 58.7551 67.5505 58.5802V57.1634C67.8537 57.35 68.2327 57.5249 68.6875 57.6882C69.1539 57.8398 69.632 57.9155 70.1217 57.9155C70.5882 57.9155 70.973 57.8572 71.2762 57.7406C71.591 57.6124 71.83 57.4375 71.9933 57.2159C72.1565 56.9943 72.2382 56.7378 72.2382 56.4463C72.2382 56.2131 72.1915 56.0148 72.0982 55.8516C72.005 55.6767 71.8417 55.5076 71.6085 55.3443C71.3869 55.1694 71.0721 54.9712 70.664 54.7496C70.2209 54.4931 69.8477 54.2424 69.5445 53.9975C69.253 53.741 69.0315 53.4611 68.8799 53.1579C68.7283 52.8548 68.6525 52.5049 68.6525 52.1085C68.6525 51.5721 68.7808 51.1056 69.0373 50.7092C69.3055 50.3127 69.6786 50.0037 70.1567 49.7821C70.6348 49.5606 71.1945 49.4498 71.8359 49.4498C72.4073 49.4498 72.932 49.5198 73.4101 49.6597C73.8998 49.788 74.3196 49.9337 74.6694 50.097L74.1797 51.3214C73.8765 51.1814 73.5384 51.0532 73.1652 50.9366C72.7921 50.8083 72.349 50.7442 71.8359 50.7442C71.3345 50.7442 70.9322 50.8666 70.629 51.1115C70.3375 51.3447 70.1917 51.6479 70.1917 52.021C70.1917 52.2193 70.2325 52.4 70.3141 52.5632C70.3958 52.7265 70.5474 52.8956 70.7689 53.0705C71.0021 53.2337 71.3228 53.432 71.7309 53.6652C72.1274 53.8984 72.4831 54.1316 72.7979 54.3648C73.1127 54.5981 73.3576 54.8663 73.5325 55.1694C73.7191 55.4726 73.8124 55.8458 73.8124 56.2889C73.8124 56.9185 73.6608 57.4491 73.3576 57.8806C73.0661 58.312 72.6463 58.6385 72.0982 58.8601C71.5502 59.07 70.9088 59.1749 70.1742 59.1749ZM77.7241 59.1749C77.1527 59.1749 76.6513 59.1166 76.2199 59C75.8001 58.8951 75.4269 58.7551 75.1004 58.5802V57.1634C75.4036 57.35 75.7826 57.5249 76.2374 57.6882C76.7038 57.8398 77.1819 57.9155 77.6716 57.9155C78.1381 57.9155 78.5229 57.8572 78.8261 57.7406C79.1409 57.6124 79.38 57.4375 79.5432 57.2159C79.7065 56.9943 79.7881 56.7378 79.7881 56.4463C79.7881 56.2131 79.7414 56.0148 79.6481 55.8516C79.5549 55.6767 79.3916 55.5076 79.1584 55.3443C78.9368 55.1694 78.622 54.9712 78.2139 54.7496C77.7708 54.4931 77.3976 54.2424 77.0944 53.9975C76.8029 53.741 76.5814 53.4611 76.4298 53.1579C76.2782 52.8548 76.2024 52.5049 76.2024 52.1085C76.2024 51.5721 76.3307 51.1056 76.5872 50.7092C76.8554 50.3127 77.2285 50.0037 77.7066 49.7821C78.1847 49.5606 78.7444 49.4498 79.3858 49.4498C79.9572 49.4498 80.4819 49.5198 80.96 49.6597C81.4497 49.788 81.8695 49.9337 82.2194 50.097L81.7296 51.3214C81.4264 51.1814 81.0883 51.0532 80.7151 50.9366C80.342 50.8083 79.8989 50.7442 79.3858 50.7442C78.8844 50.7442 78.4821 50.8666 78.1789 51.1115C77.8874 51.3447 77.7416 51.6479 77.7416 52.021C77.7416 52.2193 77.7824 52.4 77.864 52.5632C77.9457 52.7265 78.0973 52.8956 78.3188 53.0705C78.552 53.2337 78.8727 53.432 79.2808 53.6652C79.6773 53.8984 80.033 54.1316 80.3478 54.3648C80.6626 54.5981 80.9075 54.8663 81.0824 55.1694C81.269 55.4726 81.3623 55.8458 81.3623 56.2889C81.3623 56.9185 81.2107 57.4491 80.9075 57.8806C80.616 58.312 80.1962 58.6385 79.6481 58.8601C79.1001 59.07 78.4587 59.1749 77.7241 59.1749ZM90.8846 59.1749C89.9401 59.1749 89.1646 58.9125 88.5583 58.3878C87.9636 57.8514 87.6662 57.076 87.6662 56.0615C87.6662 55.4435 87.7945 54.9012 88.051 54.4348C88.3076 53.9567 88.6807 53.5311 89.1705 53.1579C89.6719 52.7731 90.2782 52.4117 90.9895 52.0735C90.768 51.7003 90.5698 51.298 90.3948 50.8666C90.2199 50.4235 90.1325 49.9571 90.1325 49.4673C90.1325 48.8726 90.2608 48.342 90.5173 47.8756C90.7855 47.3975 91.1703 47.0185 91.6717 46.7387C92.1731 46.4588 92.7795 46.3189 93.4908 46.3189C94.0622 46.3189 94.5519 46.4238 94.96 46.6337C95.3798 46.832 95.7005 47.1177 95.9221 47.4908C96.1553 47.8639 96.2719 48.3071 96.2719 48.8201C96.2719 49.4032 96.1145 49.9046 95.7996 50.3244C95.4964 50.7442 95.0883 51.1173 94.5752 51.4438C94.0622 51.7586 93.4966 52.0735 92.8786 52.3883L95.1874 55.6067C95.5722 55.2685 95.8987 54.8837 96.1669 54.4523C96.4351 54.0092 96.6625 53.5544 96.8491 53.088H98.3883C98.1901 53.5661 97.9685 54.015 97.7237 54.4348C97.4788 54.8546 97.2048 55.2511 96.9016 55.6242C96.6101 55.9973 96.2952 56.3472 95.957 56.6737L97.6887 59H95.8696L94.9076 57.6357C94.3595 58.0788 93.7765 58.4461 93.1585 58.7376C92.5404 59.0292 91.7825 59.1749 90.8846 59.1749ZM91.182 57.8981C91.6017 57.8981 91.9807 57.8398 92.3189 57.7231C92.657 57.6065 92.9777 57.4549 93.2809 57.2684C93.5841 57.0701 93.8814 56.8544 94.1729 56.6212L91.6367 53.018C91.2169 53.2396 90.8205 53.4786 90.4473 53.7352C90.0742 53.9917 89.771 54.3007 89.5378 54.6622C89.3046 55.012 89.188 55.4435 89.188 55.9565C89.188 56.353 89.2696 56.697 89.4328 56.9885C89.6077 57.28 89.8468 57.5074 90.15 57.6707C90.4532 57.8223 90.7971 57.8981 91.182 57.8981ZM92.2664 51.4263C92.5463 51.2864 92.832 51.1348 93.1235 50.9715C93.415 50.8083 93.6832 50.6334 93.9281 50.4468C94.1846 50.2486 94.3887 50.027 94.5403 49.7821C94.7035 49.5373 94.7851 49.2574 94.7851 48.9426C94.7851 48.5344 94.6685 48.2021 94.4353 47.9456C94.2021 47.689 93.8639 47.5608 93.4208 47.5608C93.036 47.5608 92.7095 47.6366 92.4413 47.7882C92.1731 47.9397 91.9632 48.1613 91.8116 48.4528C91.6717 48.7327 91.6017 49.0708 91.6017 49.4673C91.6017 49.8171 91.6542 50.1553 91.7592 50.4818C91.8758 50.7966 92.0449 51.1115 92.2664 51.4263ZM109.121 59.1749C108.2 59.1749 107.407 58.9825 106.742 58.5977C106.078 58.2129 105.565 57.6648 105.203 56.9535C104.853 56.2306 104.678 55.3793 104.678 54.3998C104.678 53.6535 104.766 52.8956 104.941 52.126C105.116 51.3564 105.378 50.6276 105.728 49.9396C106.089 49.2516 106.538 48.6394 107.075 48.103C107.623 47.5549 108.258 47.1235 108.981 46.8086C109.704 46.4938 110.521 46.3364 111.43 46.3364C112.025 46.3364 112.573 46.3947 113.074 46.5113C113.576 46.6279 114.042 46.8028 114.474 47.036L113.844 48.3304C113.529 48.1671 113.173 48.0272 112.777 47.9106C112.392 47.7823 111.943 47.7182 111.43 47.7182C110.73 47.7182 110.107 47.8465 109.558 48.103C109.01 48.3595 108.532 48.7094 108.124 49.1525C107.728 49.5956 107.395 50.1028 107.127 50.6742C106.859 51.2339 106.661 51.8344 106.533 52.4758C106.404 53.1055 106.34 53.7352 106.34 54.3648C106.34 55.426 106.608 56.2655 107.145 56.8836C107.693 57.4899 108.445 57.7931 109.401 57.7931C109.879 57.7931 110.346 57.7465 110.8 57.6532C111.267 57.5599 111.722 57.4375 112.165 57.2859V58.6502C111.71 58.8134 111.249 58.9417 110.783 59.035C110.328 59.1283 109.774 59.1749 109.121 59.1749ZM117.061 59.1749C116.559 59.1749 116.116 59.0583 115.731 58.8251C115.358 58.5802 115.061 58.2187 114.839 57.7406C114.629 57.2625 114.524 56.6737 114.524 55.974C114.524 55.2744 114.594 54.6039 114.734 53.9625C114.886 53.3095 115.096 52.709 115.364 52.1609C115.632 51.6129 115.953 51.1406 116.326 50.7442C116.711 50.336 117.136 50.0212 117.603 49.7996C118.081 49.5664 118.588 49.4498 119.125 49.4498C119.533 49.4498 119.888 49.5256 120.192 49.6772C120.506 49.8288 120.769 50.027 120.979 50.2719C121.189 50.5168 121.358 50.785 121.486 51.0765H121.573L122.133 49.6247H123.305L121.311 59H120.087L120.314 57.2684H120.244C119.976 57.6065 119.679 57.9214 119.352 58.2129C119.026 58.5044 118.67 58.7376 118.285 58.9125C117.912 59.0875 117.504 59.1749 117.061 59.1749ZM117.568 57.8981C117.999 57.8981 118.419 57.7406 118.827 57.4258C119.247 57.111 119.626 56.6853 119.964 56.1489C120.302 55.6125 120.559 55.012 120.734 54.3473C120.827 54.0092 120.885 53.7002 120.909 53.4203C120.944 53.1288 120.961 52.8606 120.961 52.6157C120.961 52.0677 120.81 51.6187 120.506 51.2689C120.203 50.9191 119.795 50.7442 119.282 50.7442C118.921 50.7442 118.577 50.8374 118.25 51.024C117.935 51.2106 117.644 51.473 117.376 51.8111C117.107 52.1376 116.88 52.5224 116.693 52.9655C116.507 53.4087 116.361 53.8926 116.256 54.4173C116.151 54.9304 116.099 55.461 116.099 56.009C116.099 56.6387 116.227 57.111 116.483 57.4258C116.74 57.7406 117.102 57.8981 117.568 57.8981ZM124.116 59L126.11 49.6247H127.369L127.177 51.3564H127.264C127.509 51.0298 127.766 50.7267 128.034 50.4468C128.302 50.1553 128.605 49.9162 128.944 49.7297C129.282 49.5431 129.672 49.4498 130.115 49.4498C130.279 49.4498 130.448 49.4615 130.623 49.4848C130.809 49.4965 130.978 49.5256 131.13 49.5723L130.798 50.9541C130.646 50.9191 130.494 50.8958 130.343 50.8841C130.203 50.8608 130.057 50.8491 129.906 50.8491C129.474 50.8491 129.072 50.9657 128.699 51.1989C128.337 51.4205 128.011 51.7178 127.719 52.091C127.439 52.4641 127.2 52.8781 127.002 53.3329C126.804 53.7876 126.658 54.2482 126.565 54.7147L125.655 59H124.116ZM137.798 59L140.141 47.8931H136.713L137.01 46.5113H145.441L145.161 47.8931H141.733L139.372 59H137.798ZM144.391 59L146.385 49.6247H147.925L145.931 59H144.391ZM147.627 48.068C147.382 48.068 147.178 47.998 147.015 47.8581C146.863 47.7065 146.788 47.5025 146.788 47.2459C146.788 47.0477 146.828 46.8669 146.91 46.7037C146.992 46.5288 147.108 46.3889 147.26 46.2839C147.412 46.179 147.598 46.1265 147.82 46.1265C148.088 46.1265 148.286 46.1965 148.414 46.3364C148.554 46.4763 148.624 46.6687 148.624 46.9136C148.624 47.2751 148.519 47.5608 148.309 47.7707C148.099 47.9689 147.872 48.068 147.627 48.068ZM148.831 59L150.842 49.5723H152.207L152.014 51.3039H152.032C152.253 51.0124 152.51 50.7208 152.801 50.4293C153.105 50.1378 153.454 49.8929 153.851 49.6947C154.247 49.4965 154.696 49.3973 155.198 49.3973C155.699 49.3973 156.13 49.4906 156.492 49.6772C156.853 49.8638 157.127 50.132 157.314 50.4818C157.512 50.8316 157.611 51.2572 157.611 51.7586C157.611 52.0268 157.588 52.3009 157.541 52.5807C157.506 52.8606 157.466 53.1055 157.419 53.3154L156.177 59H154.533L155.792 53.1055C155.851 52.8373 155.891 52.6157 155.915 52.4408C155.95 52.2542 155.967 52.0793 155.967 51.9161C155.967 51.5429 155.868 51.2631 155.67 51.0765C155.472 50.8899 155.174 50.7966 154.778 50.7966C154.393 50.7966 153.973 50.9307 153.518 51.1989C153.075 51.4671 152.656 51.9044 152.259 52.5108C151.874 53.1171 151.571 53.9334 151.35 54.9595L150.475 59H148.831ZM161.776 59.1749C161.146 59.1749 160.616 59.0233 160.184 58.7201C159.753 58.417 159.537 57.8864 159.537 57.1284C159.537 56.9535 159.549 56.7611 159.572 56.5512C159.607 56.3297 159.648 56.1081 159.695 55.8866L160.762 50.7966H159.31L159.45 50.097L161.024 49.4323L162.108 47.4908H163.018L162.546 49.6247H164.907L164.662 50.7966H162.318L161.234 55.9041C161.199 56.0557 161.164 56.2306 161.129 56.4288C161.094 56.6154 161.076 56.7903 161.076 56.9535C161.076 57.2217 161.146 57.4491 161.286 57.6357C161.438 57.8223 161.677 57.9155 162.003 57.9155C162.213 57.9155 162.417 57.8981 162.616 57.8631C162.814 57.8164 163.024 57.7581 163.245 57.6882V58.8601C163.105 58.93 162.89 59 162.598 59.07C162.307 59.1399 162.033 59.1749 161.776 59.1749Z" fill="#BF3B3B"/>
</svg>
